# xmcd
#
# Track frame offsets: 
#        150
#        19685
#        29782
#        39657
#        58230
#        70685
#        87365
#        103672
#        117142
#        133235
#        145617
#        162662
#        175017
#        195105
#
# Disc length: 2846 seconds
#
# Revision: 5
# Processed by: cddbd v1.5.2PL0 Copyright (c) Steve Scherf et al.
# Submitted via: ExactAudioCopyFreeDBPlugin 1.0
#
DISCID=c10b1c0e
DTITLE=Pure Prairie League - Best Of Pure Prairie League
DYEAR=1995
DGENRE=Pop
TTITLE0=Amie
TTITLE1=Falling In And Out Of Love
TTITLE2=That'll Be The Day
TTITLE3=Two Lane Highway
TTITLE4=Let Me Love You Tonight
TTITLE5=I'm Almost Ready
TTITLE6=I Can't Stop This Feelin'
TTITLE7=Still Right Here In My Heart
TTITLE8=You're Mine Tonight
TTITLE9=I'll Be Damned
TTITLE10=Don't Keep Me Hangin'
TTITLE11=Something In The Night
TTITLE12=Janny Lou
TTITLE13=Tell Me One More Time
EXTD=
EXTT0=
EXTT1=
EXTT2=
EXTT3=
EXTT4=
EXTT5=
EXTT6=
EXTT7=
EXTT8=
EXTT9=
EXTT10=
EXTT11=
EXTT12=
EXTT13=
PLAYORDER=
